<?xml version="1.0" encoding="utf-8"?>
<svg version="1.1" xmlns:xlink="http://www.w3.org/1999/xlink" width="12px" height="12px" viewBox="469 403.5  12 12" xmlns="http://www.w3.org/2000/svg">
  <path d="M 475 403.5  C 478.36 403.5  481 406.14  481 409.5  C 481 412.86  478.36 415.5  475 415.5  C 471.64 415.5  469 412.86  469 409.5  C 469 406.14  471.64 403.5  475 403.5  Z " fill-rule="nonzero" fill="#ffffff" stroke="none" />
  <path d="M 475 404  C 478.08 404  480.5 406.42  480.5 409.5  C 480.5 412.58  478.08 415  475 415  C 471.92 415  469.5 412.58  469.5 409.5  C 469.5 406.42  471.92 404  475 404  Z " stroke-width="1" stroke="#797979" fill="none" />
  <path d="M 475 412.5  C 473.32 412.5  472 411.18  472 409.5  C 472 407.82  473.32 406.5  475 406.5  C 476.68 406.5  478 407.82  478 409.5  C 478 411.18  476.68 412.5  475 412.5  " fill-rule="nonzero" fill="#797979" stroke="none" />
</svg>