<?xml version="1.0" encoding="utf-8"?>
<svg version="1.1" xmlns:xlink="http://www.w3.org/1999/xlink" width="12px" height="12px" viewBox="590 366.5  12 12" xmlns="http://www.w3.org/2000/svg">
  <path d="M 596 366.5  C 599.36 366.5  602 369.14  602 372.5  C 602 375.86  599.36 378.5  596 378.5  C 592.64 378.5  590 375.86  590 372.5  C 590 369.14  592.64 366.5  596 366.5  Z " fill-rule="nonzero" fill="#ffffff" stroke="none" />
  <path d="M 596 367  C 599.08 367  601.5 369.42  601.5 372.5  C 601.5 375.58  599.08 378  596 378  C 592.92 378  590.5 375.58  590.5 372.5  C 590.5 369.42  592.92 367  596 367  Z " stroke-width="1" stroke="#797979" fill="none" />
  <path d="M 596 375.5  C 594.32 375.5  593 374.18  593 372.5  C 593 370.82  594.32 369.5  596 369.5  C 597.68 369.5  599 370.82  599 372.5  C 599 374.18  597.68 375.5  596 375.5  " fill-rule="nonzero" fill="#797979" stroke="none" />
</svg>