<?xml version="1.0" encoding="utf-8"?>
<svg version="1.1" xmlns:xlink="http://www.w3.org/1999/xlink" width="77px" height="40px" xmlns="http://www.w3.org/2000/svg">
  <defs>
    <mask fill="white" id="clip4">
      <path d="M 0 35  L 0 5  C 0 2.2  1.20999999999999 0  2.75 0  L 46.5972222222225 0  L 74.25 0  C 75.79 0  77 2.2  77 5  L 77 35  C 77 37.8  75.79 40  74.25 40  L 2.75 40  C 1.20999999999999 40  0 37.8  0 35  Z " fill-rule="evenodd" />
    </mask>
  </defs>
  <g transform="matrix(1 0 0 1 -305 -96 )">
    <path d="M 0 35  L 0 5  C 0 2.2  1.20999999999999 0  2.75 0  L 46.5972222222225 0  L 74.25 0  C 75.79 0  77 2.2  77 5  L 77 35  C 77 37.8  75.79 40  74.25 40  L 2.75 40  C 1.20999999999999 40  0 37.8  0 35  Z " fill-rule="nonzero" fill="#ffffff" stroke="none" transform="matrix(1 0 0 1 305 96 )" />
    <path d="M 0 35  L 0 5  C 0 2.2  1.20999999999999 0  2.75 0  L 46.5972222222225 0  L 74.25 0  C 75.79 0  77 2.2  77 5  L 77 35  C 77 37.8  75.79 40  74.25 40  L 2.75 40  C 1.20999999999999 40  0 37.8  0 35  Z " stroke-width="2" stroke="#797979" fill="none" transform="matrix(1 0 0 1 305 96 )" mask="url(#clip4)" />
  </g>
</svg>