<?xml version="1.0" encoding="utf-8"?>
<svg version="1.1" xmlns:xlink="http://www.w3.org/1999/xlink" width="12px" height="12px" viewBox="541 535.5  12 12" xmlns="http://www.w3.org/2000/svg">
  <path d="M 547 535.5  C 550.36 535.5  553 538.14  553 541.5  C 553 544.86  550.36 547.5  547 547.5  C 543.64 547.5  541 544.86  541 541.5  C 541 538.14  543.64 535.5  547 535.5  Z " fill-rule="nonzero" fill="#ffffff" stroke="none" />
  <path d="M 547 536  C 550.08 536  552.5 538.42  552.5 541.5  C 552.5 544.58  550.08 547  547 547  C 543.92 547  541.5 544.58  541.5 541.5  C 541.5 538.42  543.92 536  547 536  Z " stroke-width="1" stroke="#797979" fill="none" />
  <path d="M 547 544.5  C 545.32 544.5  544 543.18  544 541.5  C 544 539.82  545.32 538.5  547 538.5  C 548.68 538.5  550 539.82  550 541.5  C 550 543.18  548.68 544.5  547 544.5  " fill-rule="nonzero" fill="#797979" stroke="none" />
</svg>