<?xml version="1.0" encoding="utf-8"?>
<svg version="1.1" xmlns:xlink="http://www.w3.org/1999/xlink" width="12px" height="12px" viewBox="641 535.5  12 12" xmlns="http://www.w3.org/2000/svg">
  <path d="M 647 535.5  C 650.36 535.5  653 538.14  653 541.5  C 653 544.86  650.36 547.5  647 547.5  C 643.64 547.5  641 544.86  641 541.5  C 641 538.14  643.64 535.5  647 535.5  Z " fill-rule="nonzero" fill="#ffffff" stroke="none" />
  <path d="M 647 536  C 650.08 536  652.5 538.42  652.5 541.5  C 652.5 544.58  650.08 547  647 547  C 643.92 547  641.5 544.58  641.5 541.5  C 641.5 538.42  643.92 536  647 536  Z " stroke-width="1" stroke="#797979" fill="none" />
  <path d="M 647 544.5  C 645.32 544.5  644 543.18  644 541.5  C 644 539.82  645.32 538.5  647 538.5  C 648.68 538.5  650 539.82  650 541.5  C 650 543.18  648.68 544.5  647 544.5  " fill-rule="nonzero" fill="#797979" stroke="none" />
</svg>