<?xml version="1.0" encoding="utf-8"?>
<svg version="1.1" xmlns:xlink="http://www.w3.org/1999/xlink" width="12px" height="12px" viewBox="590 445.5  12 12" xmlns="http://www.w3.org/2000/svg">
  <path d="M 596 445.5  C 599.36 445.5  602 448.14  602 451.5  C 602 454.86  599.36 457.5  596 457.5  C 592.64 457.5  590 454.86  590 451.5  C 590 448.14  592.64 445.5  596 445.5  Z " fill-rule="nonzero" fill="#ffffff" stroke="none" />
  <path d="M 596 446  C 599.08 446  601.5 448.42  601.5 451.5  C 601.5 454.58  599.08 457  596 457  C 592.92 457  590.5 454.58  590.5 451.5  C 590.5 448.42  592.92 446  596 446  Z " stroke-width="1" stroke="#797979" fill="none" />
  <path d="M 596 454.5  C 594.32 454.5  593 453.18  593 451.5  C 593 449.82  594.32 448.5  596 448.5  C 597.68 448.5  599 449.82  599 451.5  C 599 453.18  597.68 454.5  596 454.5  " fill-rule="nonzero" fill="#797979" stroke="none" />
</svg>