<?xml version="1.0" encoding="utf-8"?>
<svg version="1.1" xmlns:xlink="http://www.w3.org/1999/xlink" width="12px" height="12px" viewBox="469 445.5  12 12" xmlns="http://www.w3.org/2000/svg">
  <path d="M 475 445.5  C 478.36 445.5  481 448.14  481 451.5  C 481 454.86  478.36 457.5  475 457.5  C 471.64 457.5  469 454.86  469 451.5  C 469 448.14  471.64 445.5  475 445.5  Z " fill-rule="nonzero" fill="#ffffff" stroke="none" />
  <path d="M 475 446  C 478.08 446  480.5 448.42  480.5 451.5  C 480.5 454.58  478.08 457  475 457  C 471.92 457  469.5 454.58  469.5 451.5  C 469.5 448.42  471.92 446  475 446  Z " stroke-width="1" stroke="#797979" fill="none" />
  <path d="M 475 454.5  C 473.32 454.5  472 453.18  472 451.5  C 472 449.82  473.32 448.5  475 448.5  C 476.68 448.5  478 449.82  478 451.5  C 478 453.18  476.68 454.5  475 454.5  " fill-rule="nonzero" fill="#797979" stroke="none" />
</svg>