<?xml version="1.0" encoding="utf-8"?>
<svg version="1.1" xmlns:xlink="http://www.w3.org/1999/xlink" width="12px" height="12px" viewBox="590 476.5  12 12" xmlns="http://www.w3.org/2000/svg">
  <path d="M 596 476.5  C 599.36 476.5  602 479.14  602 482.5  C 602 485.86  599.36 488.5  596 488.5  C 592.64 488.5  590 485.86  590 482.5  C 590 479.14  592.64 476.5  596 476.5  Z " fill-rule="nonzero" fill="#ffffff" stroke="none" />
  <path d="M 596 477  C 599.08 477  601.5 479.42  601.5 482.5  C 601.5 485.58  599.08 488  596 488  C 592.92 488  590.5 485.58  590.5 482.5  C 590.5 479.42  592.92 477  596 477  Z " stroke-width="1" stroke="#797979" fill="none" />
  <path d="M 596 485.5  C 594.32 485.5  593 484.18  593 482.5  C 593 480.82  594.32 479.5  596 479.5  C 597.68 479.5  599 480.82  599 482.5  C 599 484.18  597.68 485.5  596 485.5  " fill-rule="nonzero" fill="#797979" stroke="none" />
</svg>