<?xml version="1.0" encoding="utf-8"?>
<svg version="1.1" xmlns:xlink="http://www.w3.org/1999/xlink" width="12px" height="12px" viewBox="469 476.5  12 12" xmlns="http://www.w3.org/2000/svg">
  <path d="M 475 476.5  C 478.36 476.5  481 479.14  481 482.5  C 481 485.86  478.36 488.5  475 488.5  C 471.64 488.5  469 485.86  469 482.5  C 469 479.14  471.64 476.5  475 476.5  Z " fill-rule="nonzero" fill="#ffffff" stroke="none" />
  <path d="M 475 477  C 478.08 477  480.5 479.42  480.5 482.5  C 480.5 485.58  478.08 488  475 488  C 471.92 488  469.5 485.58  469.5 482.5  C 469.5 479.42  471.92 477  475 477  Z " stroke-width="1" stroke="#797979" fill="none" />
  <path d="M 475 485.5  C 473.32 485.5  472 484.18  472 482.5  C 472 480.82  473.32 479.5  475 479.5  C 476.68 479.5  478 480.82  478 482.5  C 478 484.18  476.68 485.5  475 485.5  " fill-rule="nonzero" fill="#797979" stroke="none" />
</svg>