<?xml version="1.0" encoding="utf-8"?>
<svg version="1.1" xmlns:xlink="http://www.w3.org/1999/xlink" width="12px" height="12px" viewBox="652 353.5  12 12" xmlns="http://www.w3.org/2000/svg">
  <path d="M 658 353.5  C 661.36 353.5  664 356.14  664 359.5  C 664 362.86  661.36 365.5  658 365.5  C 654.64 365.5  652 362.86  652 359.5  C 652 356.14  654.64 353.5  658 353.5  Z " fill-rule="nonzero" fill="#ffffff" stroke="none" />
  <path d="M 658 354  C 661.08 354  663.5 356.42  663.5 359.5  C 663.5 362.58  661.08 365  658 365  C 654.92 365  652.5 362.58  652.5 359.5  C 652.5 356.42  654.92 354  658 354  Z " stroke-width="1" stroke="#797979" fill="none" />
  <path d="M 658 362.5  C 656.32 362.5  655 361.18  655 359.5  C 655 357.82  656.32 356.5  658 356.5  C 659.68 356.5  661 357.82  661 359.5  C 661 361.18  659.68 362.5  658 362.5  " fill-rule="nonzero" fill="#797979" stroke="none" />
</svg>