<?xml version="1.0" encoding="utf-8"?>
<svg version="1.1" xmlns:xlink="http://www.w3.org/1999/xlink" width="12px" height="12px" viewBox="552 352.5  12 12" xmlns="http://www.w3.org/2000/svg">
  <path d="M 558 352.5  C 561.36 352.5  564 355.14  564 358.5  C 564 361.86  561.36 364.5  558 364.5  C 554.64 364.5  552 361.86  552 358.5  C 552 355.14  554.64 352.5  558 352.5  Z " fill-rule="nonzero" fill="#ffffff" stroke="none" />
  <path d="M 558 353  C 561.08 353  563.5 355.42  563.5 358.5  C 563.5 361.58  561.08 364  558 364  C 554.92 364  552.5 361.58  552.5 358.5  C 552.5 355.42  554.92 353  558 353  Z " stroke-width="1" stroke="#797979" fill="none" />
  <path d="M 558 361.5  C 556.32 361.5  555 360.18  555 358.5  C 555 356.82  556.32 355.5  558 355.5  C 559.68 355.5  561 356.82  561 358.5  C 561 360.18  559.68 361.5  558 361.5  " fill-rule="nonzero" fill="#797979" stroke="none" />
</svg>