<?xml version="1.0" encoding="utf-8"?>
<svg version="1.1" xmlns:xlink="http://www.w3.org/1999/xlink" width="12px" height="12px" viewBox="64 425.5  12 12" xmlns="http://www.w3.org/2000/svg">
  <path d="M 70 425.5  C 73.36 425.5  76 428.14  76 431.5  C 76 434.86  73.36 437.5  70 437.5  C 66.64 437.5  64 434.86  64 431.5  C 64 428.14  66.64 425.5  70 425.5  Z " fill-rule="nonzero" fill="#ffffff" stroke="none" />
  <path d="M 70 426  C 73.08 426  75.5 428.42  75.5 431.5  C 75.5 434.58  73.08 437  70 437  C 66.92 437  64.5 434.58  64.5 431.5  C 64.5 428.42  66.92 426  70 426  Z " stroke-width="1" stroke="#797979" fill="none" />
  <path d="M 70 434.5  C 68.32 434.5  67 433.18  67 431.5  C 67 429.82  68.32 428.5  70 428.5  C 71.68 428.5  73 429.82  73 431.5  C 73 433.18  71.68 434.5  70 434.5  " fill-rule="nonzero" fill="#797979" stroke="none" />
</svg>