<?xml version="1.0" encoding="utf-8"?>
<svg version="1.1" xmlns:xlink="http://www.w3.org/1999/xlink" width="12px" height="12px" viewBox="64 451.5  12 12" xmlns="http://www.w3.org/2000/svg">
  <path d="M 70 451.5  C 73.36 451.5  76 454.14  76 457.5  C 76 460.86  73.36 463.5  70 463.5  C 66.64 463.5  64 460.86  64 457.5  C 64 454.14  66.64 451.5  70 451.5  Z " fill-rule="nonzero" fill="#ffffff" stroke="none" />
  <path d="M 70 452  C 73.08 452  75.5 454.42  75.5 457.5  C 75.5 460.58  73.08 463  70 463  C 66.92 463  64.5 460.58  64.5 457.5  C 64.5 454.42  66.92 452  70 452  Z " stroke-width="1" stroke="#797979" fill="none" />
  <path d="M 70 460.5  C 68.32 460.5  67 459.18  67 457.5  C 67 455.82  68.32 454.5  70 454.5  C 71.68 454.5  73 455.82  73 457.5  C 73 459.18  71.68 460.5  70 460.5  " fill-rule="nonzero" fill="#797979" stroke="none" />
</svg>