<?xml version="1.0" encoding="utf-8"?>
<svg version="1.1" xmlns:xlink="http://www.w3.org/1999/xlink" width="12px" height="12px" viewBox="567 648.5  12 12" xmlns="http://www.w3.org/2000/svg">
  <path d="M 573 648.5  C 576.36 648.5  579 651.14  579 654.5  C 579 657.86  576.36 660.5  573 660.5  C 569.64 660.5  567 657.86  567 654.5  C 567 651.14  569.64 648.5  573 648.5  Z " fill-rule="nonzero" fill="#ffffff" stroke="none" />
  <path d="M 573 649  C 576.08 649  578.5 651.42  578.5 654.5  C 578.5 657.58  576.08 660  573 660  C 569.92 660  567.5 657.58  567.5 654.5  C 567.5 651.42  569.92 649  573 649  Z " stroke-width="1" stroke="#797979" fill="none" />
  <path d="M 573 657.5  C 571.32 657.5  570 656.18  570 654.5  C 570 652.82  571.32 651.5  573 651.5  C 574.68 651.5  576 652.82  576 654.5  C 576 656.18  574.68 657.5  573 657.5  " fill-rule="nonzero" fill="#797979" stroke="none" />
</svg>