<?xml version="1.0" encoding="utf-8"?>
<svg version="1.1" xmlns:xlink="http://www.w3.org/1999/xlink" width="12px" height="12px" viewBox="955 208.5  12 12" xmlns="http://www.w3.org/2000/svg">
  <path d="M 961 208.5  C 964.36 208.5  967 211.14  967 214.5  C 967 217.86  964.36 220.5  961 220.5  C 957.64 220.5  955 217.86  955 214.5  C 955 211.14  957.64 208.5  961 208.5  Z " fill-rule="nonzero" fill="#ffffff" stroke="none" />
  <path d="M 961 209  C 964.08 209  966.5 211.42  966.5 214.5  C 966.5 217.58  964.08 220  961 220  C 957.92 220  955.5 217.58  955.5 214.5  C 955.5 211.42  957.92 209  961 209  Z " stroke-width="1" stroke="#797979" fill="none" />
  <path d="M 961 217.5  C 959.32 217.5  958 216.18  958 214.5  C 958 212.82  959.32 211.5  961 211.5  C 962.68 211.5  964 212.82  964 214.5  C 964 216.18  962.68 217.5  961 217.5  " fill-rule="nonzero" fill="#797979" stroke="none" />
</svg>