<?xml version="1.0" encoding="utf-8"?>
<svg version="1.1" xmlns:xlink="http://www.w3.org/1999/xlink" width="12px" height="12px" viewBox="866 208.5  12 12" xmlns="http://www.w3.org/2000/svg">
  <path d="M 872 208.5  C 875.36 208.5  878 211.14  878 214.5  C 878 217.86  875.36 220.5  872 220.5  C 868.64 220.5  866 217.86  866 214.5  C 866 211.14  868.64 208.5  872 208.5  Z " fill-rule="nonzero" fill="#ffffff" stroke="none" />
  <path d="M 872 209  C 875.08 209  877.5 211.42  877.5 214.5  C 877.5 217.58  875.08 220  872 220  C 868.92 220  866.5 217.58  866.5 214.5  C 866.5 211.42  868.92 209  872 209  Z " stroke-width="1" stroke="#797979" fill="none" />
  <path d="M 872 217.5  C 870.32 217.5  869 216.18  869 214.5  C 869 212.82  870.32 211.5  872 211.5  C 873.68 211.5  875 212.82  875 214.5  C 875 216.18  873.68 217.5  872 217.5  " fill-rule="nonzero" fill="#797979" stroke="none" />
</svg>