<?xml version="1.0" encoding="utf-8"?>
<svg version="1.1" xmlns:xlink="http://www.w3.org/1999/xlink" width="12px" height="12px" viewBox="588 546.5  12 12" xmlns="http://www.w3.org/2000/svg">
  <path d="M 594 546.5  C 597.36 546.5  600 549.14  600 552.5  C 600 555.86  597.36 558.5  594 558.5  C 590.64 558.5  588 555.86  588 552.5  C 588 549.14  590.64 546.5  594 546.5  Z " fill-rule="nonzero" fill="#ffffff" stroke="none" />
  <path d="M 594 547  C 597.08 547  599.5 549.42  599.5 552.5  C 599.5 555.58  597.08 558  594 558  C 590.92 558  588.5 555.58  588.5 552.5  C 588.5 549.42  590.92 547  594 547  Z " stroke-width="1" stroke="#797979" fill="none" />
  <path d="M 594 555.5  C 592.32 555.5  591 554.18  591 552.5  C 591 550.82  592.32 549.5  594 549.5  C 595.68 549.5  597 550.82  597 552.5  C 597 554.18  595.68 555.5  594 555.5  " fill-rule="nonzero" fill="#797979" stroke="none" />
</svg>