<?xml version="1.0" encoding="utf-8"?>
<svg version="1.1" xmlns:xlink="http://www.w3.org/1999/xlink" width="12px" height="12px" viewBox="849 546.5  12 12" xmlns="http://www.w3.org/2000/svg">
  <path d="M 855 546.5  C 858.36 546.5  861 549.14  861 552.5  C 861 555.86  858.36 558.5  855 558.5  C 851.64 558.5  849 555.86  849 552.5  C 849 549.14  851.64 546.5  855 546.5  Z " fill-rule="nonzero" fill="#ffffff" stroke="none" />
  <path d="M 855 547  C 858.08 547  860.5 549.42  860.5 552.5  C 860.5 555.58  858.08 558  855 558  C 851.92 558  849.5 555.58  849.5 552.5  C 849.5 549.42  851.92 547  855 547  Z " stroke-width="1" stroke="#797979" fill="none" />
  <path d="M 855 555.5  C 853.32 555.5  852 554.18  852 552.5  C 852 550.82  853.32 549.5  855 549.5  C 856.68 549.5  858 550.82  858 552.5  C 858 554.18  856.68 555.5  855 555.5  " fill-rule="nonzero" fill="#797979" stroke="none" />
</svg>