<?xml version="1.0" encoding="utf-8"?>
<svg version="1.1" xmlns:xlink="http://www.w3.org/1999/xlink" width="12px" height="12px" viewBox="709 546.5  12 12" xmlns="http://www.w3.org/2000/svg">
  <path d="M 715 546.5  C 718.36 546.5  721 549.14  721 552.5  C 721 555.86  718.36 558.5  715 558.5  C 711.64 558.5  709 555.86  709 552.5  C 709 549.14  711.64 546.5  715 546.5  Z " fill-rule="nonzero" fill="#ffffff" stroke="none" />
  <path d="M 715 547  C 718.08 547  720.5 549.42  720.5 552.5  C 720.5 555.58  718.08 558  715 558  C 711.92 558  709.5 555.58  709.5 552.5  C 709.5 549.42  711.92 547  715 547  Z " stroke-width="1" stroke="#797979" fill="none" />
  <path d="M 715 555.5  C 713.32 555.5  712 554.18  712 552.5  C 712 550.82  713.32 549.5  715 549.5  C 716.68 549.5  718 550.82  718 552.5  C 718 554.18  716.68 555.5  715 555.5  " fill-rule="nonzero" fill="#797979" stroke="none" />
</svg>