<?xml version="1.0" encoding="utf-8"?>
<svg version="1.1" xmlns:xlink="http://www.w3.org/1999/xlink" width="12px" height="12px" viewBox="691 349.5  12 12" xmlns="http://www.w3.org/2000/svg">
  <path d="M 697 349.5  C 700.36 349.5  703 352.14  703 355.5  C 703 358.86  700.36 361.5  697 361.5  C 693.64 361.5  691 358.86  691 355.5  C 691 352.14  693.64 349.5  697 349.5  Z " fill-rule="nonzero" fill="#ffffff" stroke="none" />
  <path d="M 697 350  C 700.08 350  702.5 352.42  702.5 355.5  C 702.5 358.58  700.08 361  697 361  C 693.92 361  691.5 358.58  691.5 355.5  C 691.5 352.42  693.92 350  697 350  Z " stroke-width="1" stroke="#797979" fill="none" />
  <path d="M 697 358.5  C 695.32 358.5  694 357.18  694 355.5  C 694 353.82  695.32 352.5  697 352.5  C 698.68 352.5  700 353.82  700 355.5  C 700 357.18  698.68 358.5  697 358.5  " fill-rule="nonzero" fill="#797979" stroke="none" />
</svg>