<?xml version="1.0" encoding="utf-8"?>
<svg version="1.1" xmlns:xlink="http://www.w3.org/1999/xlink" width="12px" height="12px" viewBox="580 346.5  12 12" xmlns="http://www.w3.org/2000/svg">
  <path d="M 586 346.5  C 589.36 346.5  592 349.14  592 352.5  C 592 355.86  589.36 358.5  586 358.5  C 582.64 358.5  580 355.86  580 352.5  C 580 349.14  582.64 346.5  586 346.5  Z " fill-rule="nonzero" fill="#ffffff" stroke="none" />
  <path d="M 586 347  C 589.08 347  591.5 349.42  591.5 352.5  C 591.5 355.58  589.08 358  586 358  C 582.92 358  580.5 355.58  580.5 352.5  C 580.5 349.42  582.92 347  586 347  Z " stroke-width="1" stroke="#797979" fill="none" />
  <path d="M 586 355.5  C 584.32 355.5  583 354.18  583 352.5  C 583 350.82  584.32 349.5  586 349.5  C 587.68 349.5  589 350.82  589 352.5  C 589 354.18  587.68 355.5  586 355.5  " fill-rule="nonzero" fill="#797979" stroke="none" />
</svg>