<?xml version="1.0" encoding="utf-8"?>
<svg version="1.1" xmlns:xlink="http://www.w3.org/1999/xlink" width="12px" height="12px" viewBox="114 164.5  12 12" xmlns="http://www.w3.org/2000/svg">
  <path d="M 120 164.5  C 123.36 164.5  126 167.14  126 170.5  C 126 173.86  123.36 176.5  120 176.5  C 116.64 176.5  114 173.86  114 170.5  C 114 167.14  116.64 164.5  120 164.5  Z " fill-rule="nonzero" fill="#ffffff" stroke="none" />
  <path d="M 120 165  C 123.08 165  125.5 167.42  125.5 170.5  C 125.5 173.58  123.08 176  120 176  C 116.92 176  114.5 173.58  114.5 170.5  C 114.5 167.42  116.92 165  120 165  Z " stroke-width="1" stroke="#797979" fill="none" />
  <path d="M 120 173.5  C 118.32 173.5  117 172.18  117 170.5  C 117 168.82  118.32 167.5  120 167.5  C 121.68 167.5  123 168.82  123 170.5  C 123 172.18  121.68 173.5  120 173.5  " fill-rule="nonzero" fill="#797979" stroke="none" />
</svg>