<?xml version="1.0" encoding="utf-8"?>
<svg version="1.1" xmlns:xlink="http://www.w3.org/1999/xlink" width="12px" height="12px" viewBox="221 163.5  12 12" xmlns="http://www.w3.org/2000/svg">
  <path d="M 227 163.5  C 230.36 163.5  233 166.14  233 169.5  C 233 172.86  230.36 175.5  227 175.5  C 223.64 175.5  221 172.86  221 169.5  C 221 166.14  223.64 163.5  227 163.5  Z " fill-rule="nonzero" fill="#ffffff" stroke="none" />
  <path d="M 227 164  C 230.08 164  232.5 166.42  232.5 169.5  C 232.5 172.58  230.08 175  227 175  C 223.92 175  221.5 172.58  221.5 169.5  C 221.5 166.42  223.92 164  227 164  Z " stroke-width="1" stroke="#797979" fill="none" />
  <path d="M 227 172.5  C 225.32 172.5  224 171.18  224 169.5  C 224 167.82  225.32 166.5  227 166.5  C 228.68 166.5  230 167.82  230 169.5  C 230 171.18  228.68 172.5  227 172.5  " fill-rule="nonzero" fill="#797979" stroke="none" />
</svg>