<?xml version="1.0" encoding="utf-8"?>
<svg version="1.1" xmlns:xlink="http://www.w3.org/1999/xlink" width="12px" height="12px" viewBox="326 161.5  12 12" xmlns="http://www.w3.org/2000/svg">
  <path d="M 332 161.5  C 335.36 161.5  338 164.14  338 167.5  C 338 170.86  335.36 173.5  332 173.5  C 328.64 173.5  326 170.86  326 167.5  C 326 164.14  328.64 161.5  332 161.5  Z " fill-rule="nonzero" fill="#ffffff" stroke="none" />
  <path d="M 332 162  C 335.08 162  337.5 164.42  337.5 167.5  C 337.5 170.58  335.08 173  332 173  C 328.92 173  326.5 170.58  326.5 167.5  C 326.5 164.42  328.92 162  332 162  Z " stroke-width="1" stroke="#797979" fill="none" />
  <path d="M 332 170.5  C 330.32 170.5  329 169.18  329 167.5  C 329 165.82  330.32 164.5  332 164.5  C 333.68 164.5  335 165.82  335 167.5  C 335 169.18  333.68 170.5  332 170.5  " fill-rule="nonzero" fill="#797979" stroke="none" />
</svg>