<?xml version="1.0" encoding="utf-8"?>
<svg version="1.1" xmlns:xlink="http://www.w3.org/1999/xlink" width="12px" height="12px" viewBox="678 378.5  12 12" xmlns="http://www.w3.org/2000/svg">
  <path d="M 684 378.5  C 687.36 378.5  690 381.14  690 384.5  C 690 387.86  687.36 390.5  684 390.5  C 680.64 390.5  678 387.86  678 384.5  C 678 381.14  680.64 378.5  684 378.5  Z " fill-rule="nonzero" fill="#ffffff" stroke="none" />
  <path d="M 684 379  C 687.08 379  689.5 381.42  689.5 384.5  C 689.5 387.58  687.08 390  684 390  C 680.92 390  678.5 387.58  678.5 384.5  C 678.5 381.42  680.92 379  684 379  Z " stroke-width="1" stroke="#797979" fill="none" />
  <path d="M 684 387.5  C 682.32 387.5  681 386.18  681 384.5  C 681 382.82  682.32 381.5  684 381.5  C 685.68 381.5  687 382.82  687 384.5  C 687 386.18  685.68 387.5  684 387.5  " fill-rule="nonzero" fill="#797979" stroke="none" />
</svg>