<?xml version="1.0" encoding="utf-8"?>
<svg version="1.1" xmlns:xlink="http://www.w3.org/1999/xlink" width="327px" height="35px" xmlns="http://www.w3.org/2000/svg">
  <g transform="matrix(1 0 0 1 -20 -295 )">
    <path d="M 21 300  A 4 4 0 0 1 25 296 L 342 296  A 4 4 0 0 1 346 300 L 346 325  A 4 4 0 0 1 342 329 L 25 329  A 4 4 0 0 1 21 325 L 21 300  Z " fill-rule="nonzero" fill="#ffffff" stroke="none" />
    <path d="M 20.5 300  A 4.5 4.5 0 0 1 25 295.5 L 342 295.5  A 4.5 4.5 0 0 1 346.5 300 L 346.5 325  A 4.5 4.5 0 0 1 342 329.5 L 25 329.5  A 4.5 4.5 0 0 1 20.5 325 L 20.5 300  Z " stroke-width="1" stroke="#4e4e4e" fill="none" stroke-opacity="0.698039215686274" />
  </g>
</svg>