<?xml version="1.0" encoding="utf-8"?>
<svg version="1.1" xmlns:xlink="http://www.w3.org/1999/xlink" width="298px" height="35px" xmlns="http://www.w3.org/2000/svg">
  <g transform="matrix(1 0 0 1 -29 -21 )">
    <path d="M 30 26  A 4 4 0 0 1 34 22 L 322 22  A 4 4 0 0 1 326 26 L 326 51  A 4 4 0 0 1 322 55 L 34 55  A 4 4 0 0 1 30 51 L 30 26  Z " fill-rule="nonzero" fill="#ffffff" stroke="none" />
    <path d="M 29.5 26  A 4.5 4.5 0 0 1 34 21.5 L 322 21.5  A 4.5 4.5 0 0 1 326.5 26 L 326.5 51  A 4.5 4.5 0 0 1 322 55.5 L 34 55.5  A 4.5 4.5 0 0 1 29.5 51 L 29.5 26  Z " stroke-width="1" stroke="#4e4e4e" fill="none" stroke-opacity="0.698039215686274" />
  </g>
</svg>