<?xml version="1.0" encoding="utf-8"?>
<svg version="1.1" xmlns:xlink="http://www.w3.org/1999/xlink" width="12px" height="12px" viewBox="20 662.5  12 12" xmlns="http://www.w3.org/2000/svg">
  <path d="M 26 662.5  C 29.36 662.5  32 665.14  32 668.5  C 32 671.86  29.36 674.5  26 674.5  C 22.64 674.5  20 671.86  20 668.5  C 20 665.14  22.64 662.5  26 662.5  Z " fill-rule="nonzero" fill="#ffffff" stroke="none" />
  <path d="M 26 663  C 29.08 663  31.5 665.42  31.5 668.5  C 31.5 671.58  29.08 674  26 674  C 22.92 674  20.5 671.58  20.5 668.5  C 20.5 665.42  22.92 663  26 663  Z " stroke-width="1" stroke="#797979" fill="none" />
  <path d="M 26 671.5  C 24.32 671.5  23 670.18  23 668.5  C 23 666.82  24.32 665.5  26 665.5  C 27.68 665.5  29 666.82  29 668.5  C 29 670.18  27.68 671.5  26 671.5  " fill-rule="nonzero" fill="#797979" stroke="none" />
</svg>