<?xml version="1.0" encoding="utf-8"?>
<svg version="1.1" xmlns:xlink="http://www.w3.org/1999/xlink" width="12px" height="12px" viewBox="562 563.5  12 12" xmlns="http://www.w3.org/2000/svg">
  <path d="M 568 563.5  C 571.36 563.5  574 566.14  574 569.5  C 574 572.86  571.36 575.5  568 575.5  C 564.64 575.5  562 572.86  562 569.5  C 562 566.14  564.64 563.5  568 563.5  Z " fill-rule="nonzero" fill="#ffffff" stroke="none" />
  <path d="M 568 564  C 571.08 564  573.5 566.42  573.5 569.5  C 573.5 572.58  571.08 575  568 575  C 564.92 575  562.5 572.58  562.5 569.5  C 562.5 566.42  564.92 564  568 564  Z " stroke-width="1" stroke="#797979" fill="none" />
  <path d="M 568 572.5  C 566.32 572.5  565 571.18  565 569.5  C 565 567.82  566.32 566.5  568 566.5  C 569.68 566.5  571 567.82  571 569.5  C 571 571.18  569.68 572.5  568 572.5  " fill-rule="nonzero" fill="#797979" stroke="none" />
</svg>