<?xml version="1.0" encoding="utf-8"?>
<svg version="1.1" xmlns:xlink="http://www.w3.org/1999/xlink" width="12px" height="12px" viewBox="658 395.5  12 12" xmlns="http://www.w3.org/2000/svg">
  <path d="M 664 395.5  C 667.36 395.5  670 398.14  670 401.5  C 670 404.86  667.36 407.5  664 407.5  C 660.64 407.5  658 404.86  658 401.5  C 658 398.14  660.64 395.5  664 395.5  Z " fill-rule="nonzero" fill="#ffffff" stroke="none" />
  <path d="M 664 396  C 667.08 396  669.5 398.42  669.5 401.5  C 669.5 404.58  667.08 407  664 407  C 660.92 407  658.5 404.58  658.5 401.5  C 658.5 398.42  660.92 396  664 396  Z " stroke-width="1" stroke="#797979" fill="none" />
  <path d="M 664 404.5  C 662.32 404.5  661 403.18  661 401.5  C 661 399.82  662.32 398.5  664 398.5  C 665.68 398.5  667 399.82  667 401.5  C 667 403.18  665.68 404.5  664 404.5  " fill-rule="nonzero" fill="#797979" stroke="none" />
</svg>