<?xml version="1.0" encoding="utf-8"?>
<svg version="1.1" xmlns:xlink="http://www.w3.org/1999/xlink" width="12px" height="12px" viewBox="876 474.5  12 12" xmlns="http://www.w3.org/2000/svg">
  <path d="M 882 474.5  C 885.36 474.5  888 477.14  888 480.5  C 888 483.86  885.36 486.5  882 486.5  C 878.64 486.5  876 483.86  876 480.5  C 876 477.14  878.64 474.5  882 474.5  Z " fill-rule="nonzero" fill="#ffffff" stroke="none" />
  <path d="M 882 475  C 885.08 475  887.5 477.42  887.5 480.5  C 887.5 483.58  885.08 486  882 486  C 878.92 486  876.5 483.58  876.5 480.5  C 876.5 477.42  878.92 475  882 475  Z " stroke-width="1" stroke="#797979" fill="none" />
  <path d="M 882 483.5  C 880.32 483.5  879 482.18  879 480.5  C 879 478.82  880.32 477.5  882 477.5  C 883.68 477.5  885 478.82  885 480.5  C 885 482.18  883.68 483.5  882 483.5  " fill-rule="nonzero" fill="#797979" stroke="none" />
</svg>