<?xml version="1.0" encoding="utf-8"?>
<svg version="1.1" xmlns:xlink="http://www.w3.org/1999/xlink" width="12px" height="12px" viewBox="242 19.5  12 12" xmlns="http://www.w3.org/2000/svg">
  <path d="M 248 19.5  C 251.36 19.5  254 22.14  254 25.5  C 254 28.86  251.36 31.5  248 31.5  C 244.64 31.5  242 28.86  242 25.5  C 242 22.14  244.64 19.5  248 19.5  Z " fill-rule="nonzero" fill="#ffffff" stroke="none" />
  <path d="M 248 20  C 251.08 20  253.5 22.42  253.5 25.5  C 253.5 28.58  251.08 31  248 31  C 244.92 31  242.5 28.58  242.5 25.5  C 242.5 22.42  244.92 20  248 20  Z " stroke-width="1" stroke="#797979" fill="none" />
  <path d="M 248 28.5  C 246.32 28.5  245 27.18  245 25.5  C 245 23.82  246.32 22.5  248 22.5  C 249.68 22.5  251 23.82  251 25.5  C 251 27.18  249.68 28.5  248 28.5  " fill-rule="nonzero" fill="#797979" stroke="none" />
</svg>