<?xml version="1.0" encoding="utf-8"?>
<svg version="1.1" xmlns:xlink="http://www.w3.org/1999/xlink" width="12px" height="12px" viewBox="136 20.5  12 12" xmlns="http://www.w3.org/2000/svg">
  <path d="M 142 20.5  C 145.36 20.5  148 23.14  148 26.5  C 148 29.86  145.36 32.5  142 32.5  C 138.64 32.5  136 29.86  136 26.5  C 136 23.14  138.64 20.5  142 20.5  Z " fill-rule="nonzero" fill="#ffffff" stroke="none" />
  <path d="M 142 21  C 145.08 21  147.5 23.42  147.5 26.5  C 147.5 29.58  145.08 32  142 32  C 138.92 32  136.5 29.58  136.5 26.5  C 136.5 23.42  138.92 21  142 21  Z " stroke-width="1" stroke="#797979" fill="none" />
  <path d="M 142 29.5  C 140.32 29.5  139 28.18  139 26.5  C 139 24.82  140.32 23.5  142 23.5  C 143.68 23.5  145 24.82  145 26.5  C 145 28.18  143.68 29.5  142 29.5  " fill-rule="nonzero" fill="#797979" stroke="none" />
</svg>