<?xml version="1.0" encoding="utf-8"?>
<svg version="1.1" xmlns:xlink="http://www.w3.org/1999/xlink" width="12px" height="12px" viewBox="335 123.5  12 12" xmlns="http://www.w3.org/2000/svg">
  <path d="M 341 123.5  C 344.36 123.5  347 126.14  347 129.5  C 347 132.86  344.36 135.5  341 135.5  C 337.64 135.5  335 132.86  335 129.5  C 335 126.14  337.64 123.5  341 123.5  Z " fill-rule="nonzero" fill="#ffffff" stroke="none" />
  <path d="M 341 124  C 344.08 124  346.5 126.42  346.5 129.5  C 346.5 132.58  344.08 135  341 135  C 337.92 135  335.5 132.58  335.5 129.5  C 335.5 126.42  337.92 124  341 124  Z " stroke-width="1" stroke="#797979" fill="none" />
  <path d="M 341 132.5  C 339.32 132.5  338 131.18  338 129.5  C 338 127.82  339.32 126.5  341 126.5  C 342.68 126.5  344 127.82  344 129.5  C 344 131.18  342.68 132.5  341 132.5  " fill-rule="nonzero" fill="#797979" stroke="none" />
</svg>