<?xml version="1.0" encoding="utf-8"?>
<svg version="1.1" xmlns:xlink="http://www.w3.org/1999/xlink" width="12px" height="12px" viewBox="123 126.5  12 12" xmlns="http://www.w3.org/2000/svg">
  <path d="M 129 126.5  C 132.36 126.5  135 129.14  135 132.5  C 135 135.86  132.36 138.5  129 138.5  C 125.64 138.5  123 135.86  123 132.5  C 123 129.14  125.64 126.5  129 126.5  Z " fill-rule="nonzero" fill="#ffffff" stroke="none" />
  <path d="M 129 127  C 132.08 127  134.5 129.42  134.5 132.5  C 134.5 135.58  132.08 138  129 138  C 125.92 138  123.5 135.58  123.5 132.5  C 123.5 129.42  125.92 127  129 127  Z " stroke-width="1" stroke="#797979" fill="none" />
  <path d="M 129 135.5  C 127.32 135.5  126 134.18  126 132.5  C 126 130.82  127.32 129.5  129 129.5  C 130.68 129.5  132 130.82  132 132.5  C 132 134.18  130.68 135.5  129 135.5  " fill-rule="nonzero" fill="#797979" stroke="none" />
</svg>