<?xml version="1.0" encoding="utf-8"?>
<svg version="1.1" xmlns:xlink="http://www.w3.org/1999/xlink" width="12px" height="12px" viewBox="230 125.5  12 12" xmlns="http://www.w3.org/2000/svg">
  <path d="M 236 125.5  C 239.36 125.5  242 128.14  242 131.5  C 242 134.86  239.36 137.5  236 137.5  C 232.64 137.5  230 134.86  230 131.5  C 230 128.14  232.64 125.5  236 125.5  Z " fill-rule="nonzero" fill="#ffffff" stroke="none" />
  <path d="M 236 126  C 239.08 126  241.5 128.42  241.5 131.5  C 241.5 134.58  239.08 137  236 137  C 232.92 137  230.5 134.58  230.5 131.5  C 230.5 128.42  232.92 126  236 126  Z " stroke-width="1" stroke="#797979" fill="none" />
  <path d="M 236 134.5  C 234.32 134.5  233 133.18  233 131.5  C 233 129.82  234.32 128.5  236 128.5  C 237.68 128.5  239 129.82  239 131.5  C 239 133.18  237.68 134.5  236 134.5  " fill-rule="nonzero" fill="#797979" stroke="none" />
</svg>