<?xml version="1.0" encoding="utf-8"?>
<svg version="1.1" xmlns:xlink="http://www.w3.org/1999/xlink" width="12px" height="12px" viewBox="568 708.5  12 12" xmlns="http://www.w3.org/2000/svg">
  <path d="M 574 708.5  C 577.36 708.5  580 711.14  580 714.5  C 580 717.86  577.36 720.5  574 720.5  C 570.64 720.5  568 717.86  568 714.5  C 568 711.14  570.64 708.5  574 708.5  Z " fill-rule="nonzero" fill="#ffffff" stroke="none" />
  <path d="M 574 709  C 577.08 709  579.5 711.42  579.5 714.5  C 579.5 717.58  577.08 720  574 720  C 570.92 720  568.5 717.58  568.5 714.5  C 568.5 711.42  570.92 709  574 709  Z " stroke-width="1" stroke="#797979" fill="none" />
  <path d="M 574 717.5  C 572.32 717.5  571 716.18  571 714.5  C 571 712.82  572.32 711.5  574 711.5  C 575.68 711.5  577 712.82  577 714.5  C 577 716.18  575.68 717.5  574 717.5  " fill-rule="nonzero" fill="#797979" stroke="none" />
</svg>