<?xml version="1.0" encoding="utf-8"?>
<svg version="1.1" xmlns:xlink="http://www.w3.org/1999/xlink" width="12px" height="12px" viewBox="564 617.5  12 12" xmlns="http://www.w3.org/2000/svg">
  <path d="M 570 617.5  C 573.36 617.5  576 620.14  576 623.5  C 576 626.86  573.36 629.5  570 629.5  C 566.64 629.5  564 626.86  564 623.5  C 564 620.14  566.64 617.5  570 617.5  Z " fill-rule="nonzero" fill="#ffffff" stroke="none" />
  <path d="M 570 618  C 573.08 618  575.5 620.42  575.5 623.5  C 575.5 626.58  573.08 629  570 629  C 566.92 629  564.5 626.58  564.5 623.5  C 564.5 620.42  566.92 618  570 618  Z " stroke-width="1" stroke="#797979" fill="none" />
  <path d="M 570 626.5  C 568.32 626.5  567 625.18  567 623.5  C 567 621.82  568.32 620.5  570 620.5  C 571.68 620.5  573 621.82  573 623.5  C 573 625.18  571.68 626.5  570 626.5  " fill-rule="nonzero" fill="#797979" stroke="none" />
</svg>