<?xml version="1.0" encoding="utf-8"?>
<svg version="1.1" xmlns:xlink="http://www.w3.org/1999/xlink" width="12px" height="12px" viewBox="664 617.5  12 12" xmlns="http://www.w3.org/2000/svg">
  <path d="M 670 617.5  C 673.36 617.5  676 620.14  676 623.5  C 676 626.86  673.36 629.5  670 629.5  C 666.64 629.5  664 626.86  664 623.5  C 664 620.14  666.64 617.5  670 617.5  Z " fill-rule="nonzero" fill="#ffffff" stroke="none" />
  <path d="M 670 618  C 673.08 618  675.5 620.42  675.5 623.5  C 675.5 626.58  673.08 629  670 629  C 666.92 629  664.5 626.58  664.5 623.5  C 664.5 620.42  666.92 618  670 618  Z " stroke-width="1" stroke="#797979" fill="none" />
  <path d="M 670 626.5  C 668.32 626.5  667 625.18  667 623.5  C 667 621.82  668.32 620.5  670 620.5  C 671.68 620.5  673 621.82  673 623.5  C 673 625.18  671.68 626.5  670 626.5  " fill-rule="nonzero" fill="#797979" stroke="none" />
</svg>