<?xml version="1.0" encoding="utf-8"?>
<svg version="1.1" xmlns:xlink="http://www.w3.org/1999/xlink" width="12px" height="12px" viewBox="13 129.5  12 12" xmlns="http://www.w3.org/2000/svg">
  <path d="M 19 129.5  C 22.36 129.5  25 132.14  25 135.5  C 25 138.86  22.36 141.5  19 141.5  C 15.64 141.5  13 138.86  13 135.5  C 13 132.14  15.64 129.5  19 129.5  Z " fill-rule="nonzero" fill="#ffffff" stroke="none" />
  <path d="M 19 130  C 22.08 130  24.5 132.42  24.5 135.5  C 24.5 138.58  22.08 141  19 141  C 15.92 141  13.5 138.58  13.5 135.5  C 13.5 132.42  15.92 130  19 130  Z " stroke-width="1" stroke="#797979" fill="none" />
  <path d="M 19 138.5  C 17.32 138.5  16 137.18  16 135.5  C 16 133.82  17.32 132.5  19 132.5  C 20.68 132.5  22 133.82  22 135.5  C 22 137.18  20.68 138.5  19 138.5  " fill-rule="nonzero" fill="#797979" stroke="none" />
</svg>