<?xml version="1.0" encoding="utf-8"?>
<svg version="1.1" xmlns:xlink="http://www.w3.org/1999/xlink" width="12px" height="12px" viewBox="184 214.5  12 12" xmlns="http://www.w3.org/2000/svg">
  <path d="M 190 214.5  C 193.36 214.5  196 217.14  196 220.5  C 196 223.86  193.36 226.5  190 226.5  C 186.64 226.5  184 223.86  184 220.5  C 184 217.14  186.64 214.5  190 214.5  Z " fill-rule="nonzero" fill="#ffffff" stroke="none" />
  <path d="M 190 215  C 193.08 215  195.5 217.42  195.5 220.5  C 195.5 223.58  193.08 226  190 226  C 186.92 226  184.5 223.58  184.5 220.5  C 184.5 217.42  186.92 215  190 215  Z " stroke-width="1" stroke="#797979" fill="none" />
  <path d="M 190 223.5  C 188.32 223.5  187 222.18  187 220.5  C 187 218.82  188.32 217.5  190 217.5  C 191.68 217.5  193 218.82  193 220.5  C 193 222.18  191.68 223.5  190 223.5  " fill-rule="nonzero" fill="#797979" stroke="none" />
</svg>