<?xml version="1.0" encoding="utf-8"?>
<svg version="1.1" xmlns:xlink="http://www.w3.org/1999/xlink" width="12px" height="12px" viewBox="242 278.5  12 12" xmlns="http://www.w3.org/2000/svg">
  <path d="M 248 278.5  C 251.36 278.5  254 281.14  254 284.5  C 254 287.86  251.36 290.5  248 290.5  C 244.64 290.5  242 287.86  242 284.5  C 242 281.14  244.64 278.5  248 278.5  Z " fill-rule="nonzero" fill="#ffffff" stroke="none" />
  <path d="M 248 279  C 251.08 279  253.5 281.42  253.5 284.5  C 253.5 287.58  251.08 290  248 290  C 244.92 290  242.5 287.58  242.5 284.5  C 242.5 281.42  244.92 279  248 279  Z " stroke-width="1" stroke="#797979" fill="none" />
  <path d="M 248 287.5  C 246.32 287.5  245 286.18  245 284.5  C 245 282.82  246.32 281.5  248 281.5  C 249.68 281.5  251 282.82  251 284.5  C 251 286.18  249.68 287.5  248 287.5  " fill-rule="nonzero" fill="#797979" stroke="none" />
</svg>